<svg width="597" height="133" viewBox="0 0 597 133" fill="none" xmlns="http://www.w3.org/2000/svg">
<path d="M47.832 98L26.584 61.52H12.504V98H0.856001V8.784H29.656C36.3973 8.784 42.072 9.936 46.68 12.24C51.3733 14.544 54.872 17.6587 57.176 21.584C59.48 25.5093 60.632 29.9893 60.632 35.024C60.632 41.168 58.84 46.5867 55.256 51.28C51.7573 55.9733 46.4667 59.088 39.384 60.624L61.784 98H47.832ZM12.504 52.176H29.656C35.9707 52.176 40.7067 50.64 43.864 47.568C47.0213 44.4107 48.6 40.2293 48.6 35.024C48.6 29.7333 47.0213 25.6373 43.864 22.736C40.792 19.8347 36.056 18.384 29.656 18.384H12.504V52.176ZM142.731 60.24C142.731 62.4587 142.603 64.8053 142.347 67.28H86.283C86.7097 74.192 89.0563 79.6107 93.323 83.536C97.675 87.376 102.923 89.296 109.067 89.296C114.102 89.296 118.283 88.144 121.611 85.84C125.024 83.4507 127.414 80.2933 128.779 76.368H141.323C139.446 83.1093 135.691 88.6133 130.059 92.88C124.427 97.0613 117.43 99.152 109.067 99.152C102.411 99.152 96.4377 97.6587 91.147 94.672C85.9417 91.6853 81.8457 87.4613 78.859 82C75.8723 76.4533 74.379 70.0533 74.379 62.8C74.379 55.5467 75.8297 49.1893 78.731 43.728C81.6323 38.2667 85.6857 34.0853 90.891 31.184C96.1817 28.1973 102.24 26.704 109.067 26.704C115.723 26.704 121.611 28.1547 126.731 31.056C131.851 33.9573 135.776 37.968 138.507 43.088C141.323 48.1227 142.731 53.84 142.731 60.24ZM130.699 57.808C130.699 53.3707 129.718 49.5733 127.755 46.416C125.792 43.1733 123.104 40.7413 119.691 39.12C116.363 37.4133 112.651 36.56 108.555 36.56C102.667 36.56 97.6323 38.4373 93.451 42.192C89.355 45.9467 87.0083 51.152 86.411 57.808H130.699ZM153.754 62.672C153.754 55.504 155.205 49.232 158.106 43.856C161.007 38.3947 164.975 34.1707 170.01 31.184C175.13 28.1973 180.805 26.704 187.034 26.704C193.178 26.704 198.511 28.0267 203.034 30.672C207.557 33.3173 210.927 36.6453 213.146 40.656V27.856H224.922V98H213.146V84.944C210.842 89.04 207.386 92.4533 202.778 95.184C198.255 97.8293 192.965 99.152 186.906 99.152C180.677 99.152 175.045 97.616 170.01 94.544C164.975 91.472 161.007 87.1627 158.106 81.616C155.205 76.0693 153.754 69.7547 153.754 62.672ZM213.146 62.8C213.146 57.5093 212.079 52.9013 209.946 48.976C207.813 45.0507 204.911 42.064 201.242 40.016C197.658 37.8827 193.69 36.816 189.338 36.816C184.986 36.816 181.018 37.84 177.434 39.888C173.85 41.936 170.991 44.9227 168.858 48.848C166.725 52.7733 165.658 57.3813 165.658 62.672C165.658 68.048 166.725 72.7413 168.858 76.752C170.991 80.6773 173.85 83.7067 177.434 85.84C181.018 87.888 184.986 88.912 189.338 88.912C193.69 88.912 197.658 87.888 201.242 85.84C204.911 83.7067 207.813 80.6773 209.946 76.752C212.079 72.7413 213.146 68.0907 213.146 62.8ZM240.254 62.672C240.254 55.504 241.705 49.232 244.606 43.856C247.507 38.3947 251.475 34.1707 256.51 31.184C261.63 28.1973 267.347 26.704 273.662 26.704C279.123 26.704 284.201 27.984 288.894 30.544C293.587 33.0187 297.171 36.304 299.646 40.4V3.28H311.422V98H299.646V84.816C297.342 88.9973 293.929 92.4533 289.406 95.184C284.883 97.8293 279.593 99.152 273.534 99.152C267.305 99.152 261.63 97.616 256.51 94.544C251.475 91.472 247.507 87.1627 244.606 81.616C241.705 76.0693 240.254 69.7547 240.254 62.672ZM299.646 62.8C299.646 57.5093 298.579 52.9013 296.446 48.976C294.313 45.0507 291.411 42.064 287.742 40.016C284.158 37.8827 280.19 36.816 275.838 36.816C271.486 36.816 267.518 37.84 263.934 39.888C260.35 41.936 257.491 44.9227 255.358 48.848C253.225 52.7733 252.158 57.3813 252.158 62.672C252.158 68.048 253.225 72.7413 255.358 76.752C257.491 80.6773 260.35 83.7067 263.934 85.84C267.518 87.888 271.486 88.912 275.838 88.912C280.19 88.912 284.158 87.888 287.742 85.84C291.411 83.7067 294.313 80.6773 296.446 76.752C298.579 72.7413 299.646 68.0907 299.646 62.8Z" fill="#0B06F8"/>
<path d="M337.122 16.464C334.903 16.464 333.026 15.696 331.49 14.16C329.954 12.624 329.186 10.7467 329.186 8.52799C329.186 6.30933 329.954 4.432 331.49 2.896C333.026 1.36 334.903 0.591995 337.122 0.591995C339.255 0.591995 341.047 1.36 342.498 2.896C344.034 4.432 344.802 6.30933 344.802 8.52799C344.802 10.7467 344.034 12.624 342.498 14.16C341.047 15.696 339.255 16.464 337.122 16.464ZM342.754 27.856V98H331.106V27.856H342.754ZM396.782 26.576C405.315 26.576 412.227 29.1787 417.518 34.384C422.809 39.504 425.454 46.928 425.454 56.656V98H413.934V58.32C413.934 51.3227 412.185 45.9893 408.686 42.32C405.187 38.5653 400.409 36.688 394.35 36.688C388.206 36.688 383.299 38.608 379.63 42.448C376.046 46.288 374.254 51.8773 374.254 59.216V98H362.606V27.856H374.254V37.84C376.558 34.256 379.673 31.4827 383.598 29.52C387.609 27.5573 392.003 26.576 396.782 26.576ZM473.409 26.704C479.468 26.704 484.758 28.0267 489.281 30.672C493.889 33.3173 497.302 36.6453 499.521 40.656V27.856H511.297V99.536C511.297 105.936 509.932 111.611 507.201 116.56C504.47 121.595 500.545 125.52 495.425 128.336C490.39 131.152 484.502 132.56 477.761 132.56C468.545 132.56 460.865 130.384 454.721 126.032C448.577 121.68 444.95 115.749 443.841 108.24H455.361C456.641 112.507 459.286 115.92 463.297 118.48C467.308 121.125 472.129 122.448 477.761 122.448C484.161 122.448 489.366 120.443 493.377 116.432C497.473 112.421 499.521 106.789 499.521 99.536V84.816C497.217 88.912 493.804 92.3253 489.281 95.056C484.758 97.7867 479.468 99.152 473.409 99.152C467.18 99.152 461.505 97.616 456.385 94.544C451.35 91.472 447.382 87.1627 444.481 81.616C441.58 76.0693 440.129 69.7547 440.129 62.672C440.129 55.504 441.58 49.232 444.481 43.856C447.382 38.3947 451.35 34.1707 456.385 31.184C461.505 28.1973 467.18 26.704 473.409 26.704ZM499.521 62.8C499.521 57.5093 498.454 52.9013 496.321 48.976C494.188 45.0507 491.286 42.064 487.617 40.016C484.033 37.8827 480.065 36.816 475.713 36.816C471.361 36.816 467.393 37.84 463.809 39.888C460.225 41.936 457.366 44.9227 455.233 48.848C453.1 52.7733 452.033 57.3813 452.033 62.672C452.033 68.048 453.1 72.7413 455.233 76.752C457.366 80.6773 460.225 83.7067 463.809 85.84C467.393 87.888 471.361 88.912 475.713 88.912C480.065 88.912 484.033 87.888 487.617 85.84C491.286 83.7067 494.188 80.6773 496.321 76.752C498.454 72.7413 499.521 68.0907 499.521 62.8ZM534.693 98.768C532.474 98.768 530.597 98 529.061 96.464C527.525 94.928 526.757 93.0507 526.757 90.832C526.757 88.6133 527.525 86.736 529.061 85.2C530.597 83.664 532.474 82.896 534.693 82.896C536.826 82.896 538.618 83.664 540.069 85.2C541.605 86.736 542.373 88.6133 542.373 90.832C542.373 93.0507 541.605 94.928 540.069 96.464C538.618 98 536.826 98.768 534.693 98.768ZM561.568 98.768C559.349 98.768 557.472 98 555.936 96.464C554.4 94.928 553.632 93.0507 553.632 90.832C553.632 88.6133 554.4 86.736 555.936 85.2C557.472 83.664 559.349 82.896 561.568 82.896C563.701 82.896 565.493 83.664 566.944 85.2C568.48 86.736 569.248 88.6133 569.248 90.832C569.248 93.0507 568.48 94.928 566.944 96.464C565.493 98 563.701 98.768 561.568 98.768ZM588.443 98.768C586.224 98.768 584.347 98 582.811 96.464C581.275 94.928 580.507 93.0507 580.507 90.832C580.507 88.6133 581.275 86.736 582.811 85.2C584.347 83.664 586.224 82.896 588.443 82.896C590.576 82.896 592.368 83.664 593.819 85.2C595.355 86.736 596.123 88.6133 596.123 90.832C596.123 93.0507 595.355 94.928 593.819 96.464C592.368 98 590.576 98.768 588.443 98.768Z" fill="#0B06F8"/>
<path d="M337.122 16.464C334.903 16.464 333.026 15.696 331.49 14.16C329.954 12.624 329.186 10.7467 329.186 8.52799C329.186 6.30933 329.954 4.432 331.49 2.896C333.026 1.36 334.903 0.591995 337.122 0.591995C339.255 0.591995 341.047 1.36 342.498 2.896C344.034 4.432 344.802 6.30933 344.802 8.52799C344.802 10.7467 344.034 12.624 342.498 14.16C341.047 15.696 339.255 16.464 337.122 16.464ZM342.754 27.856V98H331.106V27.856H342.754ZM396.782 26.576C405.315 26.576 412.227 29.1787 417.518 34.384C422.809 39.504 425.454 46.928 425.454 56.656V98H413.934V58.32C413.934 51.3227 412.185 45.9893 408.686 42.32C405.187 38.5653 400.409 36.688 394.35 36.688C388.206 36.688 383.299 38.608 379.63 42.448C376.046 46.288 374.254 51.8773 374.254 59.216V98H362.606V27.856H374.254V37.84C376.558 34.256 379.673 31.4827 383.598 29.52C387.609 27.5573 392.003 26.576 396.782 26.576ZM473.409 26.704C479.468 26.704 484.758 28.0267 489.281 30.672C493.889 33.3173 497.302 36.6453 499.521 40.656V27.856H511.297V99.536C511.297 105.936 509.932 111.611 507.201 116.56C504.47 121.595 500.545 125.52 495.425 128.336C490.39 131.152 484.502 132.56 477.761 132.56C468.545 132.56 460.865 130.384 454.721 126.032C448.577 121.68 444.95 115.749 443.841 108.24H455.361C456.641 112.507 459.286 115.92 463.297 118.48C467.308 121.125 472.129 122.448 477.761 122.448C484.161 122.448 489.366 120.443 493.377 116.432C497.473 112.421 499.521 106.789 499.521 99.536V84.816C497.217 88.912 493.804 92.3253 489.281 95.056C484.758 97.7867 479.468 99.152 473.409 99.152C467.18 99.152 461.505 97.616 456.385 94.544C451.35 91.472 447.382 87.1627 444.481 81.616C441.58 76.0693 440.129 69.7547 440.129 62.672C440.129 55.504 441.58 49.232 444.481 43.856C447.382 38.3947 451.35 34.1707 456.385 31.184C461.505 28.1973 467.18 26.704 473.409 26.704ZM499.521 62.8C499.521 57.5093 498.454 52.9013 496.321 48.976C494.188 45.0507 491.286 42.064 487.617 40.016C484.033 37.8827 480.065 36.816 475.713 36.816C471.361 36.816 467.393 37.84 463.809 39.888C460.225 41.936 457.366 44.9227 455.233 48.848C453.1 52.7733 452.033 57.3813 452.033 62.672C452.033 68.048 453.1 72.7413 455.233 76.752C457.366 80.6773 460.225 83.7067 463.809 85.84C467.393 87.888 471.361 88.912 475.713 88.912C480.065 88.912 484.033 87.888 487.617 85.84C491.286 83.7067 494.188 80.6773 496.321 76.752C498.454 72.7413 499.521 68.0907 499.521 62.8ZM534.693 98.768C532.474 98.768 530.597 98 529.061 96.464C527.525 94.928 526.757 93.0507 526.757 90.832C526.757 88.6133 527.525 86.736 529.061 85.2C530.597 83.664 532.474 82.896 534.693 82.896C536.826 82.896 538.618 83.664 540.069 85.2C541.605 86.736 542.373 88.6133 542.373 90.832C542.373 93.0507 541.605 94.928 540.069 96.464C538.618 98 536.826 98.768 534.693 98.768ZM561.568 98.768C559.349 98.768 557.472 98 555.936 96.464C554.4 94.928 553.632 93.0507 553.632 90.832C553.632 88.6133 554.4 86.736 555.936 85.2C557.472 83.664 559.349 82.896 561.568 82.896C563.701 82.896 565.493 83.664 566.944 85.2C568.48 86.736 569.248 88.6133 569.248 90.832C569.248 93.0507 568.48 94.928 566.944 96.464C565.493 98 563.701 98.768 561.568 98.768ZM588.443 98.768C586.224 98.768 584.347 98 582.811 96.464C581.275 94.928 580.507 93.0507 580.507 90.832C580.507 88.6133 581.275 86.736 582.811 85.2C584.347 83.664 586.224 82.896 588.443 82.896C590.576 82.896 592.368 83.664 593.819 85.2C595.355 86.736 596.123 88.6133 596.123 90.832C596.123 93.0507 595.355 94.928 593.819 96.464C592.368 98 590.576 98.768 588.443 98.768Z" fill="white"/>
</svg>
